<svg width="200" height="173" viewBox="0 0 200 173" fill="none" xmlns="http://www.w3.org/2000/svg">
<rect width="108.432" height="108.432" rx="10" transform="matrix(0.63595 0.77173 -0.63595 0.77173 68.9575 2.5072)" fill="#A0B121"/>
<path d="M143.52 79.8898L88.4298 13.0377L91.4563 9.365C95.4563 4.511 102.891 4.511 106.891 9.365L165.007 79.8898C168.051 83.5832 168.051 88.9153 165.007 92.6088L106.891 163.134C102.891 167.988 95.4563 167.988 91.4563 163.134L88.4298 159.461L143.52 92.6088C146.563 88.9154 146.563 83.5832 143.52 79.8898Z" fill="#FF4500"/>
<path d="M173.272 80.3913L118.182 13.5391L121.208 9.86646C125.208 5.01247 132.643 5.01246 136.643 9.86646L194.759 80.3912C197.803 84.0847 197.803 89.4168 194.759 93.1102L136.643 163.635C132.643 168.489 125.208 168.489 121.208 163.635L118.182 159.962L173.272 93.1102C176.315 89.4168 176.315 84.0847 173.272 80.3913Z" fill="#00C0BB"/>
</svg>
