<svg width="791" height="173" viewBox="0 0 791 173" fill="none" xmlns="http://www.w3.org/2000/svg">
<path d="M272.548 59.2231V73H264.491V33.8984H279.745C282.681 33.8984 285.259 34.4355 287.479 35.5098C289.717 36.584 291.436 38.1147 292.636 40.1021C293.835 42.0715 294.435 44.3184 294.435 46.8428C294.435 50.6742 293.119 53.6999 290.487 55.9199C287.873 58.1221 284.248 59.2231 279.611 59.2231H272.548ZM272.548 52.6973H279.745C281.876 52.6973 283.496 52.196 284.606 51.1934C285.734 50.1908 286.298 48.7585 286.298 46.8965C286.298 44.9808 285.734 43.4321 284.606 42.2505C283.478 41.0688 281.92 40.4601 279.933 40.4243H272.548V52.6973ZM315.812 51.2202C314.756 51.077 313.825 51.0054 313.019 51.0054C310.083 51.0054 308.158 51.999 307.245 53.9863V73H299.484V43.9424H306.815L307.03 47.4067C308.588 44.7391 310.745 43.4053 313.502 43.4053C314.362 43.4053 315.167 43.5216 315.919 43.7544L315.812 51.2202ZM317.396 58.2026C317.396 55.3201 317.951 52.751 319.062 50.4951C320.172 48.2393 321.765 46.4937 323.842 45.2583C325.937 44.0229 328.362 43.4053 331.12 43.4053C335.041 43.4053 338.236 44.6048 340.707 47.0039C343.196 49.403 344.583 52.6615 344.87 56.7793L344.923 58.7666C344.923 63.2246 343.679 66.8053 341.19 69.5088C338.702 72.1943 335.363 73.5371 331.173 73.5371C326.984 73.5371 323.636 72.1943 321.129 69.5088C318.641 66.8232 317.396 63.1709 317.396 58.5518V58.2026ZM325.158 58.7666C325.158 61.5238 325.677 63.6364 326.715 65.1045C327.754 66.5547 329.24 67.2798 331.173 67.2798C333.053 67.2798 334.521 66.5636 335.578 65.1313C336.634 63.6812 337.162 61.3716 337.162 58.2026C337.162 55.4992 336.634 53.4045 335.578 51.9185C334.521 50.4325 333.035 49.6895 331.12 49.6895C329.222 49.6895 327.754 50.4325 326.715 51.9185C325.677 53.3866 325.158 55.6693 325.158 58.7666ZM360.124 62.0161L365.495 43.9424H373.82L362.138 77.5117L361.493 79.0425C359.757 82.8381 356.892 84.7358 352.899 84.7358C351.771 84.7358 350.626 84.5658 349.462 84.2256V78.3442L350.644 78.3711C352.112 78.3711 353.204 78.1473 353.92 77.6997C354.654 77.2521 355.227 76.5091 355.639 75.4707L356.552 73.0806L346.374 43.9424H354.726L360.124 62.0161ZM389.879 73.5371C385.618 73.5371 382.145 72.2301 379.459 69.6162C376.792 67.0023 375.458 63.52 375.458 59.1694V58.4175C375.458 55.4992 376.022 52.8942 377.15 50.6025C378.278 48.293 379.871 46.5205 381.93 45.2852C384.007 44.0319 386.37 43.4053 389.02 43.4053C392.995 43.4053 396.119 44.6585 398.393 47.165C400.684 49.6715 401.83 53.2254 401.83 57.8267V60.9956H383.327C383.577 62.8934 384.329 64.4152 385.583 65.561C386.854 66.7069 388.456 67.2798 390.39 67.2798C393.38 67.2798 395.716 66.1966 397.399 64.0303L401.212 68.3003C400.049 69.9474 398.473 71.2365 396.486 72.1675C394.499 73.0806 392.296 73.5371 389.879 73.5371ZM388.993 49.6895C387.453 49.6895 386.2 50.2087 385.233 51.2471C384.285 52.2855 383.676 53.7715 383.407 55.7051H394.203V55.0874C394.167 53.3687 393.702 52.0438 392.807 51.1128C391.911 50.1639 390.64 49.6895 388.993 49.6895ZM418.346 67.2798C419.778 67.2798 420.942 66.8859 421.837 66.0981C422.733 65.3104 423.198 64.263 423.234 62.9561H430.512C430.494 64.9255 429.957 66.7337 428.9 68.3809C427.844 70.0101 426.394 71.2812 424.55 72.1943C422.724 73.0895 420.701 73.5371 418.48 73.5371C414.327 73.5371 411.05 72.2212 408.651 69.5894C406.252 66.9396 405.053 63.2873 405.053 58.6323V58.1221C405.053 53.6462 406.243 50.0744 408.625 47.4067C411.006 44.7391 414.273 43.4053 418.427 43.4053C422.061 43.4053 424.971 44.4437 427.155 46.5205C429.357 48.5794 430.476 51.3276 430.512 54.7651H423.234C423.198 53.2612 422.733 52.0438 421.837 51.1128C420.942 50.1639 419.761 49.6895 418.292 49.6895C416.484 49.6895 415.115 50.3519 414.184 51.6768C413.271 52.9837 412.814 55.1143 412.814 58.0684V58.874C412.814 61.8639 413.271 64.0124 414.184 65.3193C415.097 66.6263 416.484 67.2798 418.346 67.2798ZM444.235 36.7988V43.9424H449.203V49.6357H444.235V64.1377C444.235 65.2119 444.441 65.9818 444.853 66.4473C445.264 66.9128 446.052 67.1455 447.216 67.1455C448.075 67.1455 448.836 67.0828 449.499 66.9575V72.8389C447.977 73.3044 446.41 73.5371 444.799 73.5371C439.356 73.5371 436.581 70.7889 436.474 65.2925V49.6357H432.23V43.9424H436.474V36.7988H444.235ZM451.513 58.2026C451.513 55.3201 452.068 52.751 453.178 50.4951C454.288 48.2393 455.881 46.4937 457.958 45.2583C460.053 44.0229 462.479 43.4053 465.236 43.4053C469.157 43.4053 472.353 44.6048 474.823 47.0039C477.312 49.403 478.699 52.6615 478.986 56.7793L479.04 58.7666C479.04 63.2246 477.795 66.8053 475.307 69.5088C472.818 72.1943 469.479 73.5371 465.29 73.5371C461.1 73.5371 457.752 72.1943 455.246 69.5088C452.757 66.8232 451.513 63.1709 451.513 58.5518V58.2026ZM459.274 58.7666C459.274 61.5238 459.793 63.6364 460.832 65.1045C461.87 66.5547 463.356 67.2798 465.29 67.2798C467.169 67.2798 468.638 66.5636 469.694 65.1313C470.75 63.6812 471.278 61.3716 471.278 58.2026C471.278 55.4992 470.75 53.4045 469.694 51.9185C468.638 50.4325 467.152 49.6895 465.236 49.6895C463.338 49.6895 461.87 50.4325 460.832 51.9185C459.793 53.3866 459.274 55.6693 459.274 58.7666ZM512.501 58.686H506.083V73H498.026V33.8984H512.555C517.174 33.8984 520.737 34.9279 523.244 36.9868C525.75 39.0457 527.003 41.9551 527.003 45.7148C527.003 48.3825 526.422 50.6115 525.258 52.4019C524.112 54.1743 522.366 55.5887 520.021 56.645L528.48 72.624V73H519.833L512.501 58.686ZM506.083 52.1602H512.582C514.605 52.1602 516.172 51.6499 517.282 50.6294C518.392 49.591 518.947 48.1676 518.947 46.3594C518.947 44.5153 518.419 43.0651 517.362 42.0088C516.324 40.9525 514.722 40.4243 512.555 40.4243H506.083V52.1602ZM546.017 73.5371C541.756 73.5371 538.283 72.2301 535.597 69.6162C532.93 67.0023 531.596 63.52 531.596 59.1694V58.4175C531.596 55.4992 532.16 52.8942 533.288 50.6025C534.416 48.293 536.009 46.5205 538.068 45.2852C540.145 44.0319 542.508 43.4053 545.158 43.4053C549.132 43.4053 552.257 44.6585 554.53 47.165C556.822 49.6715 557.968 53.2254 557.968 57.8267V60.9956H539.464C539.715 62.8934 540.467 64.4152 541.72 65.561C542.991 66.7069 544.594 67.2798 546.527 67.2798C549.517 67.2798 551.854 66.1966 553.537 64.0303L557.35 68.3003C556.186 69.9474 554.611 71.2365 552.624 72.1675C550.636 73.0806 548.434 73.5371 546.017 73.5371ZM545.131 49.6895C543.591 49.6895 542.338 50.2087 541.371 51.2471C540.422 52.2855 539.813 53.7715 539.545 55.7051H550.341V55.0874C550.305 53.3687 549.84 52.0438 548.944 51.1128C548.049 50.1639 546.778 49.6895 545.131 49.6895ZM561.271 58.2563C561.271 53.7983 562.327 50.2087 564.44 47.4873C566.57 44.766 569.435 43.4053 573.034 43.4053C576.221 43.4053 578.7 44.4974 580.473 46.6816L580.795 43.9424H587.831V72.0332C587.831 74.5755 587.249 76.7866 586.085 78.6665C584.94 80.5464 583.319 81.9787 581.225 82.9634C579.13 83.9481 576.677 84.4404 573.866 84.4404C571.736 84.4404 569.659 84.0107 567.636 83.1514C565.613 82.3099 564.082 81.2178 563.043 79.875L566.481 75.1484C568.415 77.3148 570.76 78.3979 573.517 78.3979C575.576 78.3979 577.178 77.8429 578.324 76.7329C579.47 75.6408 580.043 74.0832 580.043 72.0601V70.5024C578.253 72.5256 575.898 73.5371 572.98 73.5371C569.489 73.5371 566.66 72.1764 564.494 69.4551C562.345 66.7158 561.271 63.0903 561.271 58.5786V58.2563ZM569.032 58.8203C569.032 61.4521 569.56 63.52 570.617 65.0239C571.673 66.5099 573.123 67.2529 574.967 67.2529C577.331 67.2529 579.022 66.3667 580.043 64.5942V52.375C579.005 50.6025 577.331 49.7163 575.021 49.7163C573.159 49.7163 571.691 50.4772 570.617 51.999C569.56 53.5208 569.032 55.7946 569.032 58.8203ZM602.011 73H594.223V43.9424H602.011V73ZM593.766 36.4229C593.766 35.2591 594.151 34.3013 594.921 33.5493C595.709 32.7974 596.774 32.4214 598.117 32.4214C599.442 32.4214 600.498 32.7974 601.286 33.5493C602.073 34.3013 602.467 35.2591 602.467 36.4229C602.467 37.6045 602.064 38.5713 601.259 39.3232C600.471 40.0752 599.424 40.4512 598.117 40.4512C596.81 40.4512 595.753 40.0752 594.948 39.3232C594.16 38.5713 593.766 37.6045 593.766 36.4229ZM607.221 58.2026C607.221 55.3201 607.776 52.751 608.886 50.4951C609.996 48.2393 611.589 46.4937 613.666 45.2583C615.761 44.0229 618.187 43.4053 620.944 43.4053C624.865 43.4053 628.061 44.6048 630.531 47.0039C633.02 49.403 634.407 52.6615 634.694 56.7793L634.748 58.7666C634.748 63.2246 633.503 66.8053 631.015 69.5088C628.526 72.1943 625.187 73.5371 620.998 73.5371C616.808 73.5371 613.46 72.1943 610.954 69.5088C608.465 66.8232 607.221 63.1709 607.221 58.5518V58.2026ZM614.982 58.7666C614.982 61.5238 615.501 63.6364 616.54 65.1045C617.578 66.5547 619.064 67.2798 620.998 67.2798C622.877 67.2798 624.346 66.5636 625.402 65.1313C626.458 63.6812 626.986 61.3716 626.986 58.2026C626.986 55.4992 626.458 53.4045 625.402 51.9185C624.346 50.4325 622.86 49.6895 620.944 49.6895C619.046 49.6895 617.578 50.4325 616.54 51.9185C615.501 53.3866 614.982 55.6693 614.982 58.7666ZM646.671 43.9424L646.913 47.2993C648.99 44.7033 651.774 43.4053 655.265 43.4053C658.345 43.4053 660.636 44.3094 662.14 46.1177C663.644 47.9259 664.414 50.6294 664.45 54.228V73H656.688V54.416C656.688 52.7689 656.33 51.5783 655.614 50.8442C654.898 50.0923 653.708 49.7163 652.042 49.7163C649.858 49.7163 648.22 50.6473 647.128 52.5093V73H639.367V43.9424H646.671ZM687.196 73C686.838 72.3018 686.579 71.4334 686.417 70.395C684.538 72.4897 682.094 73.5371 679.086 73.5371C676.239 73.5371 673.876 72.7135 671.996 71.0664C670.134 69.4193 669.203 67.3424 669.203 64.8359C669.203 61.7565 670.34 59.3932 672.614 57.7461C674.905 56.099 678.209 55.2664 682.523 55.2485H686.095V53.5835C686.095 52.2407 685.746 51.1665 685.048 50.3608C684.368 49.5552 683.284 49.1523 681.798 49.1523C680.491 49.1523 679.462 49.4657 678.71 50.0923C677.976 50.7189 677.609 51.5783 677.609 52.6704H669.848C669.848 50.9875 670.367 49.4299 671.405 47.9976C672.444 46.5653 673.912 45.4463 675.81 44.6406C677.707 43.8171 679.838 43.4053 682.201 43.4053C685.782 43.4053 688.62 44.3094 690.714 46.1177C692.827 47.908 693.883 50.4325 693.883 53.6909V66.2861C693.901 69.0433 694.286 71.1291 695.038 72.5435V73H687.196ZM680.778 67.6021C681.924 67.6021 682.98 67.3514 683.947 66.8501C684.914 66.3309 685.63 65.6416 686.095 64.7822V59.7871H683.195C679.31 59.7871 677.242 61.1299 676.991 63.8154L676.964 64.272C676.964 65.2388 677.305 66.0355 677.985 66.6621C678.665 67.2887 679.596 67.6021 680.778 67.6021ZM708.036 73H700.248V31.75H708.036V73ZM272.548 123.223V137H264.491V97.8984H279.745C282.681 97.8984 285.259 98.4355 287.479 99.5098C289.717 100.584 291.436 102.115 292.636 104.102C293.835 106.071 294.435 108.318 294.435 110.843C294.435 114.674 293.119 117.7 290.487 119.92C287.873 122.122 284.248 123.223 279.611 123.223H272.548ZM272.548 116.697H279.745C281.876 116.697 283.496 116.196 284.606 115.193C285.734 114.191 286.298 112.758 286.298 110.896C286.298 108.981 285.734 107.432 284.606 106.25C283.478 105.069 281.92 104.46 279.933 104.424H272.548V116.697ZM316 137C315.642 136.302 315.382 135.433 315.221 134.395C313.341 136.49 310.897 137.537 307.89 137.537C305.043 137.537 302.68 136.714 300.8 135.066C298.938 133.419 298.007 131.342 298.007 128.836C298.007 125.757 299.144 123.393 301.417 121.746C303.709 120.099 307.012 119.266 311.327 119.249H314.899V117.583C314.899 116.241 314.55 115.167 313.852 114.361C313.171 113.555 312.088 113.152 310.602 113.152C309.295 113.152 308.266 113.466 307.514 114.092C306.78 114.719 306.413 115.578 306.413 116.67H298.651C298.651 114.987 299.171 113.43 300.209 111.998C301.247 110.565 302.715 109.446 304.613 108.641C306.511 107.817 308.642 107.405 311.005 107.405C314.586 107.405 317.423 108.309 319.518 110.118C321.631 111.908 322.687 114.432 322.687 117.691V130.286C322.705 133.043 323.09 135.129 323.842 136.543V137H316ZM309.582 131.602C310.727 131.602 311.784 131.351 312.75 130.85C313.717 130.331 314.433 129.642 314.899 128.782V123.787H311.999C308.113 123.787 306.046 125.13 305.795 127.815L305.768 128.272C305.768 129.239 306.108 130.035 306.789 130.662C307.469 131.289 308.4 131.602 309.582 131.602ZM354.806 122.74C354.806 127.216 353.786 130.805 351.745 133.509C349.722 136.194 346.982 137.537 343.527 137.537C340.591 137.537 338.218 136.517 336.41 134.476V148.172H328.649V107.942H335.846L336.115 110.789C337.995 108.533 340.447 107.405 343.473 107.405C347.054 107.405 349.838 108.73 351.825 111.38C353.812 114.03 354.806 117.682 354.806 122.337V122.74ZM347.045 122.176C347.045 119.472 346.562 117.387 345.595 115.918C344.646 114.45 343.258 113.716 341.432 113.716C338.997 113.716 337.323 114.647 336.41 116.509V128.406C337.359 130.322 339.051 131.28 341.486 131.28C345.192 131.28 347.045 128.245 347.045 122.176ZM376.479 137C376.12 136.302 375.861 135.433 375.7 134.395C373.82 136.49 371.376 137.537 368.368 137.537C365.521 137.537 363.158 136.714 361.278 135.066C359.416 133.419 358.485 131.342 358.485 128.836C358.485 125.757 359.622 123.393 361.896 121.746C364.188 120.099 367.491 119.266 371.806 119.249H375.377V117.583C375.377 116.241 375.028 115.167 374.33 114.361C373.65 113.555 372.567 113.152 371.081 113.152C369.774 113.152 368.744 113.466 367.992 114.092C367.258 114.719 366.891 115.578 366.891 116.67H359.13C359.13 114.987 359.649 113.43 360.688 111.998C361.726 110.565 363.194 109.446 365.092 108.641C366.99 107.817 369.12 107.405 371.483 107.405C375.064 107.405 377.902 108.309 379.997 110.118C382.109 111.908 383.166 114.432 383.166 117.691V130.286C383.183 133.043 383.568 135.129 384.32 136.543V137H376.479ZM370.06 131.602C371.206 131.602 372.262 131.351 373.229 130.85C374.196 130.331 374.912 129.642 375.377 128.782V123.787H372.477C368.592 123.787 366.524 125.13 366.273 127.815L366.247 128.272C366.247 129.239 366.587 130.035 367.267 130.662C367.947 131.289 368.878 131.602 370.06 131.602ZM391.142 146.802L387.086 144.681L388.053 142.935C389.253 140.751 389.87 138.576 389.906 136.409V130.394H396.459L396.432 135.765C396.414 137.752 395.913 139.757 394.928 141.78C393.944 143.803 392.681 145.477 391.142 146.802ZM440.287 121.021H424.818V137H416.762V97.8984H442.221V104.424H424.818V114.522H440.287V121.021ZM462.309 137C461.951 136.302 461.691 135.433 461.53 134.395C459.65 136.49 457.206 137.537 454.198 137.537C451.352 137.537 448.988 136.714 447.108 135.066C445.246 133.419 444.315 131.342 444.315 128.836C444.315 125.757 445.452 123.393 447.726 121.746C450.018 120.099 453.321 119.266 457.636 119.249H461.208V117.583C461.208 116.241 460.858 115.167 460.16 114.361C459.48 113.555 458.397 113.152 456.911 113.152C455.604 113.152 454.574 113.466 453.822 114.092C453.088 114.719 452.721 115.578 452.721 116.67H444.96C444.96 114.987 445.479 113.43 446.518 111.998C447.556 110.565 449.024 109.446 450.922 108.641C452.82 107.817 454.95 107.405 457.313 107.405C460.894 107.405 463.732 108.309 465.827 110.118C467.939 111.908 468.996 114.432 468.996 117.691V130.286C469.014 133.043 469.398 135.129 470.15 136.543V137H462.309ZM455.89 131.602C457.036 131.602 458.092 131.351 459.059 130.85C460.026 130.331 460.742 129.642 461.208 128.782V123.787H458.307C454.422 123.787 452.354 125.13 452.104 127.815L452.077 128.272C452.077 129.239 452.417 130.035 453.097 130.662C453.778 131.289 454.708 131.602 455.89 131.602ZM482.235 107.942L482.477 111.192C484.536 108.667 487.32 107.405 490.829 107.405C494.571 107.405 497.14 108.882 498.537 111.836C500.578 108.882 503.487 107.405 507.265 107.405C510.416 107.405 512.761 108.327 514.301 110.171C515.84 111.998 516.61 114.755 516.61 118.443V137H508.822V118.47C508.822 116.823 508.5 115.623 507.855 114.871C507.211 114.101 506.074 113.716 504.445 113.716C502.117 113.716 500.506 114.826 499.611 117.046L499.638 137H491.876V118.497C491.876 116.814 491.545 115.596 490.883 114.844C490.22 114.092 489.092 113.716 487.499 113.716C485.297 113.716 483.703 114.629 482.719 116.456V137H474.958V107.942H482.235ZM530.79 137H523.002V107.942H530.79V137ZM522.545 100.423C522.545 99.2591 522.93 98.3013 523.7 97.5493C524.488 96.7974 525.553 96.4214 526.896 96.4214C528.221 96.4214 529.277 96.7974 530.065 97.5493C530.853 98.3013 531.247 99.2591 531.247 100.423C531.247 101.604 530.844 102.571 530.038 103.323C529.25 104.075 528.203 104.451 526.896 104.451C525.589 104.451 524.533 104.075 523.727 103.323C522.939 102.571 522.545 101.604 522.545 100.423ZM545.399 137H537.611V95.75H545.399V137ZM560.009 137H552.221V107.942H560.009V137ZM551.764 100.423C551.764 99.2591 552.149 98.3013 552.919 97.5493C553.707 96.7974 554.772 96.4214 556.115 96.4214C557.44 96.4214 558.496 96.7974 559.284 97.5493C560.071 98.3013 560.465 99.2591 560.465 100.423C560.465 101.604 560.062 102.571 559.257 103.323C558.469 104.075 557.422 104.451 556.115 104.451C554.808 104.451 553.751 104.075 552.946 103.323C552.158 102.571 551.764 101.604 551.764 100.423ZM583.266 137C582.908 136.302 582.648 135.433 582.487 134.395C580.607 136.49 578.163 137.537 575.155 137.537C572.309 137.537 569.945 136.714 568.065 135.066C566.203 133.419 565.272 131.342 565.272 128.836C565.272 125.757 566.409 123.393 568.683 121.746C570.975 120.099 574.278 119.266 578.593 119.249H582.165V117.583C582.165 116.241 581.815 115.167 581.117 114.361C580.437 113.555 579.354 113.152 577.868 113.152C576.561 113.152 575.531 113.466 574.779 114.092C574.045 114.719 573.678 115.578 573.678 116.67H565.917C565.917 114.987 566.436 113.43 567.475 111.998C568.513 110.565 569.981 109.446 571.879 108.641C573.777 107.817 575.907 107.405 578.271 107.405C581.851 107.405 584.689 108.309 586.784 110.118C588.896 111.908 589.953 114.432 589.953 117.691V130.286C589.971 133.043 590.355 135.129 591.107 136.543V137H583.266ZM576.847 131.602C577.993 131.602 579.049 131.351 580.016 130.85C580.983 130.331 581.699 129.642 582.165 128.782V123.787H579.264C575.379 123.787 573.311 125.13 573.061 127.815L573.034 128.272C573.034 129.239 573.374 130.035 574.054 130.662C574.735 131.289 575.666 131.602 576.847 131.602ZM620.46 126.016L625.832 107.942H634.157L622.475 141.512L621.83 143.042C620.093 146.838 617.229 148.736 613.236 148.736C612.108 148.736 610.963 148.566 609.799 148.226V142.344L610.98 142.371C612.449 142.371 613.541 142.147 614.257 141.7C614.991 141.252 615.564 140.509 615.976 139.471L616.889 137.081L606.71 107.942H615.062L620.46 126.016ZM682.121 123.975C681.816 128.182 680.259 131.495 677.448 133.912C674.655 136.329 670.967 137.537 666.383 137.537C661.37 137.537 657.423 135.854 654.54 132.488C651.675 129.104 650.243 124.467 650.243 118.577V116.187C650.243 112.427 650.906 109.115 652.23 106.25C653.555 103.386 655.444 101.193 657.897 99.6709C660.368 98.1312 663.232 97.3613 666.491 97.3613C671.002 97.3613 674.637 98.5698 677.394 100.987C680.151 103.404 681.745 106.797 682.174 111.165H674.118C673.921 108.641 673.214 106.814 671.996 105.687C670.797 104.541 668.961 103.968 666.491 103.968C663.805 103.968 661.791 104.935 660.448 106.868C659.123 108.784 658.443 111.765 658.407 115.811V118.765C658.407 122.99 659.043 126.079 660.314 128.03C661.603 129.982 663.626 130.958 666.383 130.958C668.872 130.958 670.725 130.394 671.942 129.266C673.178 128.12 673.885 126.356 674.064 123.975H682.121ZM695.092 137H687.304V95.75H695.092V137ZM709.701 137H701.913V107.942H709.701V137ZM701.457 100.423C701.457 99.2591 701.841 98.3013 702.611 97.5493C703.399 96.7974 704.464 96.4214 705.807 96.4214C707.132 96.4214 708.188 96.7974 708.976 97.5493C709.764 98.3013 710.158 99.2591 710.158 100.423C710.158 101.604 709.755 102.571 708.949 103.323C708.161 104.075 707.114 104.451 705.807 104.451C704.5 104.451 703.444 104.075 702.638 103.323C701.85 102.571 701.457 101.604 701.457 100.423ZM723.397 107.942L723.639 111.192C725.698 108.667 728.482 107.405 731.991 107.405C735.733 107.405 738.302 108.882 739.699 111.836C741.74 108.882 744.649 107.405 748.427 107.405C751.578 107.405 753.923 108.327 755.463 110.171C757.003 111.998 757.772 114.755 757.772 118.443V137H749.984V118.47C749.984 116.823 749.662 115.623 749.018 114.871C748.373 114.101 747.236 113.716 745.607 113.716C743.279 113.716 741.668 114.826 740.773 117.046L740.8 137H733.039V118.497C733.039 116.814 732.707 115.596 732.045 114.844C731.382 114.092 730.255 113.716 728.661 113.716C726.459 113.716 724.866 114.629 723.881 116.456V137H716.12V107.942H723.397ZM780.6 137C780.242 136.302 779.982 135.433 779.821 134.395C777.941 136.49 775.497 137.537 772.489 137.537C769.643 137.537 767.279 136.714 765.399 135.066C763.537 133.419 762.606 131.342 762.606 128.836C762.606 125.757 763.743 123.393 766.017 121.746C768.309 120.099 771.612 119.266 775.927 119.249H779.499V117.583C779.499 116.241 779.149 115.167 778.451 114.361C777.771 113.555 776.688 113.152 775.202 113.152C773.895 113.152 772.865 113.466 772.113 114.092C771.379 114.719 771.012 115.578 771.012 116.67H763.251C763.251 114.987 763.77 113.43 764.809 111.998C765.847 110.565 767.315 109.446 769.213 108.641C771.111 107.817 773.241 107.405 775.604 107.405C779.185 107.405 782.023 108.309 784.118 110.118C786.23 111.908 787.287 114.432 787.287 117.691V130.286C787.305 133.043 787.689 135.129 788.441 136.543V137H780.6ZM774.181 131.602C775.327 131.602 776.383 131.351 777.35 130.85C778.317 130.331 779.033 129.642 779.499 128.782V123.787H776.598C772.713 123.787 770.645 125.13 770.395 127.815L770.368 128.272C770.368 129.239 770.708 130.035 771.388 130.662C772.069 131.289 773 131.602 774.181 131.602Z" fill="#54595F"/>
<rect x="83.4386" y="2.5" width="118" height="118" rx="10" transform="rotate(45 83.4386 2.5)" fill="#A0B121"/>
<path d="M172.929 78.9289L107 13L112.929 7.07107C116.834 3.16583 123.166 3.16583 127.071 7.07107L198.929 78.9289C202.834 82.8342 202.834 89.1658 198.929 93.0711L127.071 164.929C123.166 168.834 116.834 168.834 112.929 164.929L107 159L172.929 93.0711C176.834 89.1658 176.834 82.8342 172.929 78.9289Z" fill="#FF4500"/>
<path d="M208.929 79.4289L143 13.5L148.929 7.57107C152.834 3.66583 159.166 3.66583 163.071 7.57107L234.929 79.4289C238.834 83.3342 238.834 89.6658 234.929 93.5711L163.071 165.429C159.166 169.334 152.834 169.334 148.929 165.429L143 159.5L208.929 93.5711C212.834 89.6658 212.834 83.3342 208.929 79.4289Z" fill="#00C0BB"/>
</svg>
